<svg width="43" height="29" viewBox="0 0 43 29" fill="none" xmlns="http://www.w3.org/2000/svg">
<path d="M42.9922 19.0089C42.997 18.587 42.8598 18.1758 42.6025 17.8412C42.7707 17.5679 42.8606 17.2537 42.8623 16.9329V12.3266C42.869 12.2402 42.869 12.1535 42.8623 12.0671C42.853 11.6675 42.7165 11.2811 42.4726 10.9642C42.7076 10.6672 42.8438 10.3043 42.8623 9.92617V5.31991C42.869 5.23353 42.869 5.14678 42.8623 5.0604C42.8623 1.03803 28.8348 0 21.4314 0C14.028 0 0.000519992 1.03803 0.000519992 5.0604V9.92617C0.0189606 10.3043 0.15519 10.6672 0.390171 10.9642C0.146296 11.2811 0.00981633 11.6675 0.000519992 12.0671V16.9329C-0.00959763 17.3556 0.128202 17.7686 0.390171 18.1007C0.213498 18.3941 0.123447 18.7315 0.130403 19.0738V23.9396C0.130403 27.962 14.1579 29 21.5613 29C28.9647 29 42.9922 27.962 42.9922 23.9396V19.3333C43.0026 19.2255 43.0026 19.1168 42.9922 19.0089V19.0089ZM41.3686 19.0738C41.2387 19.4631 40.0698 20.3714 35.9784 21.2148C31.224 22.0909 26.3956 22.5037 21.5613 22.4474C16.727 22.5037 11.8986 22.0909 7.14415 21.2148C3.37751 20.4362 2.14361 19.5928 1.8189 19.1387C5.84531 21.3445 15.6516 21.9284 21.3665 21.9284C27.0814 21.9284 37.4721 21.2148 41.3037 18.8792L41.3686 19.0738ZM39.9399 21.7987V24.9127L38.3813 25.4966V22.3177L39.9399 21.7987ZM10.9108 23.4855V26.7293L8.24816 26.34V23.0962L10.9108 23.4855ZM4.2867 22.1879V25.3669L3.31257 24.9776V21.8635L4.2867 22.1879ZM41.2387 16.9329C41.1614 17.1589 40.9981 17.3453 40.7841 17.4519V14.4676L41.2387 14.2081V16.9329ZM39.81 17.9709L38.2514 18.5548V15.3758L39.81 14.8568V17.9709ZM37.2123 18.8143L35.8485 19.1387C31.0941 20.0148 26.2657 20.4276 21.4314 20.3714C18.1989 20.3754 14.9686 20.2021 11.755 19.8523V16.6085C14.9695 16.9463 18.1992 17.1195 21.4314 17.1275C25.7825 17.1275 32.4716 16.7383 37.2123 15.6353V18.8143V18.8143ZM10.7809 19.7875L8.11828 19.3982V16.1544L10.7809 16.5436V19.7875ZM7.14415 19.2036H7.01426L5.066 18.7494V15.5056L7.14415 15.9597V19.1387V19.2036ZM4.09187 18.3602L3.11774 17.9709V14.9217L4.09187 15.2461V18.4251V18.3602ZM2.14361 17.4519C2.02133 17.3957 1.91204 17.3148 1.82262 17.2143C1.7332 17.1138 1.66559 16.9959 1.62407 16.868V14.2081L2.14361 14.4676V17.5168V17.4519ZM1.68901 9.92617V7.20134L2.14361 7.46085V10.5101C1.92105 10.3828 1.75771 10.173 1.68901 9.92617V9.92617ZM3.18268 7.85011L4.09187 8.23937V11.4183L3.11774 11.0291V7.85011H3.18268ZM5.13094 8.434L7.20909 8.88814V12.0671H7.01426L5.066 11.613V8.49888L5.13094 8.434ZM8.18322 9.08277L10.8458 9.47203V12.7159L8.18322 12.3266V9.08277ZM11.82 9.60179C15.0345 9.93956 18.2641 10.1128 21.4963 10.1208C25.8475 10.1208 32.5365 9.73154 37.2773 8.62864V11.8076L35.9135 12.132C31.159 13.0081 26.3307 13.4209 21.4963 13.3647C18.2638 13.3687 15.0335 13.1954 11.82 12.8456V9.60179ZM38.2514 8.36913L39.81 7.85011V10.9642L38.2514 11.5481V8.36913ZM40.7841 7.46085L41.2387 7.20134V9.92617C41.1614 10.1522 40.9981 10.3386 40.7841 10.4452V7.46085ZM7.01426 2.85459C11.7687 1.97849 16.5971 1.56566 21.4314 1.62192C26.2657 1.56566 31.0941 1.97849 35.8485 2.85459C40.2646 3.76286 41.2387 4.8009 41.2387 5.0604C41.1089 5.44966 39.9399 6.35794 35.8485 7.20134C31.0941 8.07744 26.2657 8.49026 21.4314 8.434C16.5971 8.49026 11.7687 8.07744 7.01426 7.20134C2.5982 6.29306 1.62407 5.25503 1.62407 4.99552C1.62407 4.73602 2.66315 3.76286 7.01426 2.85459V2.85459ZM1.68901 12.0671C5.58554 14.3378 15.5866 14.9866 21.4963 14.9866C27.4061 14.9866 37.3422 14.3378 41.3037 12.0671C41.1738 12.4564 40.0048 13.3647 35.9135 14.2081C31.159 15.0842 26.3307 15.497 21.4963 15.4407C16.662 15.497 11.8337 15.0842 7.07921 14.2081C2.66314 13.2998 1.68901 12.2617 1.68901 12.0022V12.0671ZM1.8189 23.8747V21.1499L2.33843 21.4094V24.4586C2.21616 24.4024 2.10686 24.3215 2.01744 24.221C1.92802 24.1205 1.86042 24.0026 1.8189 23.8747V23.8747ZM5.26083 25.6264V22.4474L7.33897 22.9016V26.0805H7.20909L5.26083 25.6264ZM21.6262 27.3132C18.372 27.3196 15.12 27.1463 11.8849 26.7942V23.5503C15.0994 23.8881 18.3291 24.0613 21.5613 24.0693C25.9124 24.0693 32.6014 23.6801 37.3422 22.5772V25.7562L35.9784 26.0805C31.224 26.9566 26.3956 27.3695 21.5613 27.3132H21.6262ZM40.914 24.3937V21.4094L41.3686 21.1499V23.8747C41.2913 24.1007 41.128 24.2872 40.914 24.3937Z" fill="#FFB800"/>
<path d="M21.1058 7.86111H23.5861V7.58333C28.0775 7.51389 30.3568 7.02778 29.9546 6.47222C29.5523 5.91667 18.5584 5.29167 18.9607 4.31944C19.3629 3.34722 20.6366 3.625 22.9828 3.625C24.3049 3.6475 25.625 3.74022 26.9379 3.90278L27.5413 3.55556C26.0945 3.3837 24.6401 3.29097 23.1839 3.27778V3H21.7762V3.34722C18.8936 3.41667 17.0166 3.83333 16.6144 4.38889C16.2122 4.94445 26.6028 5.56944 27.005 6.61111C27.4072 7.65278 25.0609 7.30556 21.7762 7.30556C19.7604 7.30796 17.7461 7.19203 15.7429 6.95833L14 7.30556C16.4262 7.58643 18.8657 7.72554 21.3069 7.72222V8L21.1058 7.86111Z" fill="#FFB800"/>
</svg>
