<svg width="53" height="35" viewBox="0 0 53 35" fill="none" xmlns="http://www.w3.org/2000/svg">
<path d="M15.9147 22.3242L17.5195 21.591L17.4192 21.4339C20.378 20.0723 21.7321 19.1297 21.3309 18.8678C20.9297 18.606 13.5075 21.3292 13.5075 20.596C13.5075 19.8628 14.4102 19.6534 16.015 18.9726C16.8851 18.6115 17.7722 18.2968 18.6729 18.0299L18.9738 17.611C17.9875 17.9071 17.0166 18.2567 16.0651 18.6584L16.015 18.4489L15.0621 18.8678V19.1297C13.2066 19.9676 12.0531 20.8055 11.9528 21.2768C11.8525 21.7481 18.8234 19.2344 19.375 19.7581C19.9267 20.2818 18.2717 20.8055 16.1153 21.7481C14.7899 22.3343 13.4336 22.8413 12.0531 23.2668L11 24C12.654 23.4669 14.278 22.8375 15.8645 22.1147V22.2718L15.9147 22.3242ZM32.6648 6.40399L34.3699 6.71821V6.50873C37.5293 6.98005 39.1843 6.98005 38.9837 6.50873C38.7831 6.03741 31.1101 4.25686 31.5113 3.62843C31.9125 3 32.7651 3.31421 34.42 3.6808C35.3331 3.85996 36.237 4.08718 37.1281 4.3616L37.6296 4.20449C36.6396 3.90545 35.6352 3.66073 34.6206 3.47132V3.20948L33.6176 3V3.26185C31.6116 2.94763 30.2074 3 29.8564 3.36658C29.5053 3.73317 36.7269 5.46135 36.8774 6.19451C37.0278 6.92768 35.423 6.45636 33.1161 6.03741C31.695 5.78937 30.2885 5.45716 28.9035 5.04239H27.6498C29.3153 5.54248 31.0063 5.94461 32.7149 6.24688V6.40399H32.6648Z" fill="#FFB800"/>
<path d="M42.6558 16.4863C42.9345 16.3468 43.1749 16.1421 43.3563 15.8899C43.5377 15.6376 43.6546 15.3454 43.6972 15.0383L43.8534 13.5386C46.7692 13.4352 49.1123 12.8146 49.3726 11.3149L49.9454 7.90178V7.69492C50.6223 3.66121 34.8976 1.02379 34.2728 0.920362C33.648 0.816934 17.9233 -1.76877 17.2464 2.21322L16.6737 5.52292C12.9768 5.88492 11.1544 6.76406 10.9982 8.16035V8.3672C6.98893 9.4532 -0.144443 11.7286 0.376241 14.4178L1.1052 18.0378C1.36554 19.3823 3.34414 20.1063 6.93686 20.158C3.0838 22.2783 -0.717196 24.9675 0.115899 26.9843L1.52175 30.3974C1.88622 31.2766 3.03173 31.6386 4.48965 31.6386C7.40548 31.6386 11.6751 30.3457 14.3826 29.4149V30.8629C14.3826 34.9483 30.3156 35 30.9925 35C31.6694 35 47.6023 34.9483 47.6023 30.8629V29.1046H48.123C49.9454 29.1046 51.3512 28.7426 51.7157 27.6566L52.8091 24.3469L52.9133 24.14C53.8505 21.5543 46.9775 18.2446 42.6558 16.4863ZM51.2471 23.6229C50.3619 24.2435 44.9468 23.9332 36.4596 21.0889C34.8976 20.5717 33.3876 20.0029 31.9818 19.3823C32.1644 19.0659 32.2712 18.712 32.2942 18.348C33.4917 18.8652 35.0017 19.4857 36.6159 20.0029L36.5117 20.158L38.23 20.7269V20.5717C41.4061 21.5543 43.0723 21.8129 42.9682 21.3475C42.8641 20.882 37.8655 18.7618 36.2514 17.7792L38.0738 17.624H38.23L38.7507 17.7792C39.6722 18.112 40.5759 18.4918 41.4582 18.9169L41.9789 18.8135C41.0122 18.3483 40.0215 17.934 39.011 17.5723L40.0003 17.4172C47.4982 20.158 50.9347 22.7437 51.195 23.6229H51.2471ZM3.60448 28.2254H4.02103L4.74999 29.932H4.28137L3.60448 28.2254ZM5.16653 28.0703L6.2079 27.9152H6.41618L7.14513 29.6734L5.84342 29.8803L5.16653 28.0703ZM7.50961 27.6049L9.1758 27.1912L9.90476 28.9494L8.23857 29.3632L7.50961 27.6049ZM10.2172 26.8809C12.5318 26.1888 14.8085 25.3776 17.0381 24.4503C20.732 22.961 24.2574 21.0889 27.556 18.8652L28.2849 20.5717C26.7973 21.6511 25.2309 22.6191 23.5988 23.4677C21.7764 24.4503 19.7978 25.3812 17.715 26.2086L15.3719 27.1394C13.7058 27.76 12.1958 28.2772 10.842 28.6392L10.2172 26.8809ZM10.7379 18.2446H10.6337L10.2692 16.3829C12.7165 16.176 15.0075 15.814 16.0488 15.6072L16.5695 15.7623L13.8099 16.8483L10.7379 18.2446ZM3.55241 16.3829H3.96896L4.33344 18.1412L3.86482 18.0378L3.55241 16.3829ZM5.11447 16.538H6.41618L6.78065 18.348H5.42688L5.11447 16.538ZM7.82202 18.3998L7.45754 16.538L9.1758 16.4346L9.54028 18.2963H7.82202V18.3998ZM17.0381 14.0558L17.2464 12.1423L18.9126 12.5561L18.7043 14.4695L17.0381 14.0558ZM15.9968 13.7455L14.7992 13.3318L15.0075 11.4701L16.205 11.8838L15.9968 13.7455ZM13.7578 12.9181L13.3413 12.7112L13.5495 10.9012L13.914 11.0563L13.7578 12.9181ZM19.7457 14.6763L19.954 12.7629C23.4946 13.4869 26.827 13.7972 27.1394 13.8489C29.5345 14.0558 31.8256 14.2109 33.9604 14.2109C35.6835 14.2151 37.4051 14.1115 39.1151 13.9006L38.9069 15.7623C36.3555 16.1243 32.2942 16.2795 26.9832 15.7623C24.5525 15.5323 22.1363 15.1697 19.7457 14.6763V14.6763ZM19.5895 5.10921L20.006 5.31607L19.6936 7.12606L19.2771 6.91921L19.5895 5.10921ZM20.9953 5.78149L22.1929 6.24692L21.8805 8.10863L20.6829 7.59149L20.9953 5.78149ZM23.2343 6.60892L24.8484 7.12606L24.4839 9.03949L22.8698 8.52235L23.2343 6.60892ZM25.8377 7.43635C29.3263 8.41892 32.6066 8.93606 32.919 8.98777C33.2314 9.03949 36.3034 9.55663 39.792 9.76349C41.4729 9.88465 43.1597 9.90192 44.8427 9.8152L44.5303 11.6769C41.9789 11.8838 37.8655 11.7286 32.6066 10.8495C30.2196 10.4604 27.8556 9.94245 25.5253 9.29806L25.8377 7.43635ZM46.5609 11.4701L45.6237 11.6252L45.9361 9.76349L46.8733 9.60834L46.5609 11.4701ZM32.2942 18.1412V17.8826H35.4183C37.3969 18.8652 40.8334 20.2097 40.8334 20.7269C40.8334 21.244 39.3234 20.7269 36.9803 19.9512C35.5614 19.4784 34.1706 18.9259 32.8149 18.2963L32.2942 18.1412ZM29.1701 19.9512L28.4411 18.2446L29.0659 17.7275H29.1701L29.847 19.2789L29.1701 19.9512ZM40.0003 15.5038L40.1565 13.7972L41.0417 13.5903L40.8855 15.4003L40.2086 15.5555L40.0003 15.5038ZM17.1423 29.6734L17.5588 29.8286V31.6903L17.1423 31.5352V29.6734ZM18.6523 30.0872L19.9019 30.3457V32.2591L18.6523 31.9489V30.0872V30.0872ZM20.9953 30.5526L22.6615 30.8112V32.7246L20.9953 32.466V30.5526ZM17.9754 28.0186L18.444 27.8117C20.5788 26.9326 22.5574 26.0017 24.4318 25.0192L27.4518 23.3126C28.8056 23.9332 30.2635 24.5537 31.7735 25.1743H31.2007V25.4329C29.0659 25.4846 27.6601 25.7949 27.3997 26.1569C27.1394 26.5189 34.7935 26.9843 35.0538 27.7083C35.3141 28.4323 33.5959 28.2254 31.1487 28.2254C29.6523 28.2236 28.1573 28.1373 26.6708 27.9669L25.3691 28.2254C27.1678 28.4127 28.9757 28.499 30.7842 28.484V28.6392H32.6066V28.484C35.939 28.4323 37.6052 28.122 37.3448 27.7083C37.0845 27.2946 28.9097 26.8292 29.2221 26.1569C29.5345 25.4846 30.4197 25.6397 32.2421 25.6914H33.2835L34.7414 26.2086C37.3554 27.075 40.0148 27.8 42.7079 28.3806C38.872 29.167 34.9607 29.5312 31.0445 29.4666C25.0567 29.5183 20.3705 28.846 17.9233 28.0186H17.9754ZM44.7906 29.6217V31.4317L43.9054 31.742V29.932L44.7906 29.6217ZM35.2621 24.5537C33.1273 23.8297 31.0445 23.0023 29.1701 22.1749C29.7554 21.7645 30.312 21.3153 30.8363 20.8303C32.4504 21.5026 34.1166 22.1749 35.8869 22.7437C39.4512 24.008 43.1306 24.926 46.8733 25.4846H47.4981L46.8733 27.2946C44.2699 27.0877 40.3127 26.2603 35.2621 24.5537ZM34.0124 2.62693C42.812 4.07493 47.7585 6.40206 48.2271 7.38463C47.4981 8.16035 42.031 8.7292 33.2314 7.28121C24.4318 5.83321 19.4853 3.50607 19.0167 2.5235C19.7457 1.74779 25.2129 1.17893 34.0124 2.62693ZM16.9861 7.28121C17.6109 8.16035 19.0688 8.98777 21.3077 9.86691C24.2846 10.9553 27.3507 11.7859 30.4718 12.3492L27.2956 12.0906C18.3919 11.2115 13.3413 9.24634 12.7685 8.31549C12.1958 7.38463 14.1223 7.53978 16.9861 7.28121V7.28121ZM10.7899 10.2806L10.6337 11.8321C10.5296 12.7629 11.2065 13.5903 12.6644 14.3143C6.25997 15.1418 2.71932 14.6763 2.0945 14.1075C2.40691 13.4869 4.85412 11.8838 10.7899 10.2806V10.2806ZM11.1023 20.0029H11.1544L14.4868 18.5032C16.3092 17.7792 18.0795 17.1069 19.7978 16.538C21.8284 16.9518 24.0674 17.262 26.4625 17.5206C23.2719 19.6247 19.869 21.3925 16.3092 22.7955C8.08237 26.2086 2.61518 26.8809 1.73002 26.312C1.93829 25.4329 5.0624 22.8472 11.1023 19.9512V20.0029ZM23.7029 32.828V30.9146C26.1076 31.158 28.5232 31.2789 30.9404 31.2766C34.9426 31.3391 38.94 30.975 42.8641 30.1906V32.0523C40.3648 32.6729 36.3034 33.19 30.9925 33.19C28.5578 33.2017 26.1243 33.0808 23.7029 32.828V32.828ZM47.9668 27.3463L48.5916 25.588H49.4767L48.904 27.2946H47.9668V27.3463Z" fill="#FFB800"/>
</svg>
