<svg width="43" height="16" viewBox="0 0 43 16" fill="none" xmlns="http://www.w3.org/2000/svg">
<path d="M21.1718 7.03554H23.5821V6.77496C27.9468 6.70982 30.1617 6.25381 29.7708 5.73266C29.3799 5.21151 18.6963 4.62521 19.0872 3.7132C19.4781 2.80118 20.7158 3.06176 22.9958 3.06176C24.2806 3.08286 25.5635 3.16984 26.8393 3.32233L27.4256 2.99661C26.0197 2.8354 24.6063 2.74842 23.1913 2.73604V2.47546H21.8233V2.80118C19.0221 2.86633 17.198 3.25719 16.8072 3.77834C16.4163 4.29949 26.4485 4.82064 26.8393 5.7978C27.2302 6.77496 24.9502 6.44924 21.7581 6.44924C19.7992 6.4515 17.8418 6.34275 15.8952 6.12352L14.2014 6.44924C16.5591 6.71272 18.9297 6.84321 21.3021 6.8401V7.10068L21.1718 7.03554Z" fill="#FFB800"/>
<path d="M42.995 5.08123C42.995 1.0423 28.9239 0 21.4975 0C14.0711 0 0 1.0423 0 5.08123V9.96702C0 14.0059 14.0711 15.0482 21.4975 15.0482C28.9239 15.0482 42.995 14.0059 42.995 9.96702V5.3418C43.0017 5.25507 43.0017 5.16796 42.995 5.08123V5.08123ZM7.10069 2.86633C11.8699 1.98663 16.7133 1.5721 21.5626 1.6286C26.3902 1.57631 31.2116 1.99082 35.9594 2.86633C40.3892 3.77835 41.3664 4.82065 41.3664 5.08123C41.2361 5.47209 40.0635 6.3841 35.9594 7.23098C31.1902 8.11068 26.3468 8.5252 21.4975 8.46871C16.6481 8.5252 11.8048 8.11068 7.03554 7.23098C2.60576 6.31896 1.6286 5.27666 1.6286 5.01608C1.6286 4.75551 2.6709 3.77835 7.10069 2.86633ZM39.9332 7.88241V11.0093L38.3698 11.5956V8.40357L39.9332 7.88241ZM10.8139 9.51101V12.7682L8.14299 12.3773V9.12015L10.8139 9.51101ZM4.16921 8.20813V11.4002L3.12691 11.0093V7.88241L4.16921 8.20813ZM1.69374 9.90187V7.16583L2.21489 7.42641V10.4882C1.97981 10.3891 1.79278 10.2021 1.69374 9.96702V9.90187ZM5.08122 11.6608V8.46871L7.16583 8.92472V12.1168H7.10069L5.08122 11.6608ZM21.4975 13.3545C18.2549 13.3585 15.0146 13.1846 11.791 12.8334V9.57615C15.0155 9.91532 18.2552 10.0893 21.4975 10.0973C25.8621 10.0973 32.572 9.70644 37.3275 8.599V11.791L35.9594 12.1168C31.1923 13.0183 26.349 13.4547 21.4975 13.4196V13.3545ZM40.8452 10.423V7.42641L41.3012 7.16583V9.90187C41.2782 10.0206 41.2318 10.1336 41.1647 10.2343C41.0976 10.335 41.0112 10.4213 40.9104 10.4882L40.8452 10.423Z" fill="#FFB800"/>
</svg>
