<svg width="103" height="165" viewBox="0 0 103 165" fill="none" xmlns="http://www.w3.org/2000/svg">
<path d="M27.9183 88.5H69.1183C69.4365 88.5 69.7417 88.3736 69.9668 88.1486C70.1918 87.9235 70.3183 87.6183 70.3183 87.3V16.6C70.3183 16.2818 70.1918 15.9765 69.9668 15.7515C69.7417 15.5265 69.4365 15.4 69.1183 15.4H28.0183C27.7 15.4 27.3948 15.5265 27.1697 15.7515C26.9447 15.9765 26.8183 16.2818 26.8183 16.6V63.7C27.4696 64.8011 27.8787 66.0284 28.0183 67.3C28.2243 69.5148 27.7721 71.7411 26.7183 73.7V87.3C26.7183 87.6183 26.8447 87.9235 27.0697 88.1486C27.2948 88.3736 27.6 88.5 27.9183 88.5V88.5ZM29.2183 86.1V17.8H68.0183V86.1H29.2183V86.1Z" fill="#FFB800"/>
<path d="M53.7182 92.9001H45.3182C44.6816 92.9001 44.0712 93.153 43.6211 93.603C43.171 94.0531 42.9182 94.6636 42.9182 95.3001C42.9182 95.9366 43.171 96.5471 43.6211 96.9972C44.0712 97.4472 44.6816 97.7001 45.3182 97.7001H53.7182C54.3547 97.7001 54.9651 97.4472 55.4152 96.9972C55.8653 96.5471 56.1182 95.9366 56.1182 95.3001C56.1182 94.6636 55.8653 94.0531 55.4152 93.603C54.9651 93.153 54.3547 92.9001 53.7182 92.9001V92.9001ZM58.5182 8.1001H40.5182C39.8816 8.1001 39.2712 8.35295 38.8211 8.80304C38.371 9.25313 38.1182 9.86358 38.1182 10.5001C38.1182 11.1366 38.371 11.7471 38.8211 12.1972C39.2712 12.6472 39.8816 12.9001 40.5182 12.9001H58.5182C59.1547 12.9001 59.7651 12.6472 60.2152 12.1972C60.6653 11.7471 60.9182 11.1366 60.9182 10.5001C60.9182 9.86358 60.6653 9.25313 60.2152 8.80304C59.7651 8.35295 59.1547 8.1001 58.5182 8.1001V8.1001Z" fill="#4F5050"/>
<path d="M36.1343 74.003L60.7213 29.093L61.5983 29.573L37.0113 74.483L36.1343 74.003Z" fill="#FFB800"/>
<path d="M64.0181 24C61.5506 26.1706 58.7476 27.9267 55.7181 29.2L60.7181 30L64.0181 33.8C63.4679 30.5565 63.4679 27.2435 64.0181 24V24ZM33.6181 79.5C34.0865 76.2475 34.0528 72.9423 33.5181 69.7L36.8181 73.5L41.8181 74.3C38.8316 75.5977 36.0652 77.352 33.6181 79.5V79.5Z" fill="#FFB800"/>
<path d="M102.318 133L93.6182 121L95.8182 87.1V86.6C95.8182 86.4 93.2182 68.6 98.5182 55.5C100.018 51.8 99.6182 48.3 97.4182 45.7C96.2925 44.4562 94.8575 43.5326 93.2591 43.0233C91.6607 42.5139 89.956 42.4369 88.3182 42.8C84.9053 43.5267 81.8795 45.4846 79.8182 48.3V9.1C79.8182 6.68653 78.8594 4.37191 77.1528 2.66533C75.4463 0.958747 73.1316 0 70.7182 0H26.5182C24.1047 0 21.7901 0.958747 20.0835 2.66533C18.3769 4.37191 17.4182 6.68653 17.4182 9.1V34.8C15.7755 34.1172 13.9829 33.8759 12.2182 34.1C10.8789 34.2529 9.58501 34.6777 8.41572 35.3483C7.24643 36.0189 6.22641 36.9212 5.41817 38C3.76279 40.1358 3.02259 42.8413 3.36007 45.5223C3.69755 48.2034 5.08512 50.641 7.21817 52.3L10.6182 55.2C8.75072 55.7445 7.08261 56.8218 5.81817 58.3C4.03367 60.358 3.13702 63.039 3.32443 65.7565C3.51184 68.4739 4.76805 71.0065 6.81817 72.8L8.01817 73.8C6.15072 74.3445 4.48261 75.4218 3.21817 76.9C2.33747 77.9108 1.66466 79.0853 1.23823 80.3563C0.811806 81.6273 0.640121 82.9699 0.732997 84.3073C0.825873 85.6447 1.18149 86.9507 1.77951 88.1506C2.37752 89.3505 3.20621 90.4207 4.21817 91.3L7.51817 94.2C5.59239 94.7409 3.85896 95.8156 2.51817 97.3C0.733667 99.358 -0.162983 102.039 0.0244277 104.756C0.211838 107.474 1.46805 110.006 3.51817 111.8L4.71817 112.8L5.21817 113.4L8.61817 116.4C8.98361 116.788 9.42653 117.094 9.91817 117.3L43.5182 146.5L44.2182 146.9L53.4182 150.7L62.3182 163.1C62.539 163.423 62.8385 163.684 63.1885 163.859C63.5384 164.034 63.9273 164.117 64.3182 164.1C64.8158 164.122 65.3071 163.981 65.7182 163.7C66.2293 163.337 66.5782 162.789 66.6903 162.172C66.8024 161.556 66.6689 160.919 66.3182 160.4L57.0182 147.4C56.7875 147.026 56.434 146.743 56.0182 146.6L46.5182 142.7L18.6182 118.4C20.9237 117.667 22.8934 116.138 24.1757 114.086C25.4579 112.034 25.9692 109.594 25.6182 107.2H55.9182C55.3182 111.1 54.9182 121.8 65.6182 130.9C65.7248 131.001 65.8505 131.079 65.9879 131.131C66.1252 131.182 66.2716 131.206 66.4182 131.2C66.589 131.208 66.7592 131.176 66.9154 131.106C67.0717 131.037 67.2096 130.932 67.3182 130.8C67.4237 130.682 67.5049 130.544 67.5571 130.395C67.6092 130.245 67.6313 130.087 67.622 129.929C67.6127 129.771 67.5722 129.617 67.5029 129.474C67.4336 129.332 67.3368 129.205 67.2182 129.1C57.0182 120.4 57.9182 110.2 58.4182 107.2H71.0182C73.4316 107.2 75.7463 106.241 77.4528 104.535C79.1594 102.828 80.1182 100.513 80.1182 98.1V60.3C80.2921 60.0197 80.4267 59.7169 80.5182 59.4C83.0182 49.1 87.6182 48 89.6182 47.6C90.4002 47.391 91.2247 47.4017 92.001 47.6311C92.7773 47.8605 93.4753 48.2995 94.0182 48.9C95.0182 50.1 95.1182 51.7 94.3182 53.7C88.8182 67.3 90.9182 84.6 91.2182 87L89.0182 121.5C88.9938 122.061 89.1328 122.617 89.4182 123.1L98.6182 135.8C98.8454 136.092 99.1325 136.333 99.4601 136.505C99.7878 136.678 100.149 136.778 100.518 136.8C100.773 136.815 101.029 136.779 101.269 136.693C101.51 136.607 101.73 136.473 101.918 136.3C102.36 135.883 102.641 135.325 102.714 134.722C102.787 134.12 102.647 133.51 102.318 133ZM10.2182 48.6C9.06664 47.71 8.3148 46.3999 8.12736 44.9566C7.93993 43.5133 8.33217 42.0546 9.21817 40.9C9.64919 40.3289 10.1894 39.8492 10.8074 39.4887C11.4254 39.1282 12.1089 38.8941 12.8182 38.8C13.5247 38.699 14.2445 38.7446 14.9326 38.9338C15.6208 39.1231 16.2626 39.452 16.8182 39.9L17.4182 40.2V54.6L10.2182 48.6ZM9.41817 61.5C9.88666 60.955 10.4592 60.5091 11.1023 60.1883C11.7453 59.8674 12.4459 59.6782 13.1631 59.6316C13.8802 59.5851 14.5994 59.6821 15.2786 59.9171C15.9577 60.152 16.5831 60.5202 17.1182 61L17.5182 61.3L21.3182 64.7C21.8631 65.1685 22 65.7307 22 66.5C22 67.4776 21.9534 67.7829 22 68.5C22.0466 69.2171 22 70 22 70.5C22 71 22 72 21.8182 72.4C20.871 73.4917 19.5321 74.1666 18.0912 74.2789C16.6503 74.3912 15.223 73.9318 14.1182 73L10.7182 70L10.5182 69.8L10.0182 69.2C8.92651 68.2528 8.25155 66.914 8.13927 65.473C8.02699 64.0321 8.48641 62.6049 9.41817 61.5ZM19.3182 112.2C18.3745 113.285 17.0497 113.965 15.6182 114.1C14.5699 114.181 13.5221 113.937 12.6182 113.4L6.61817 108.2C5.7315 107.197 5.24106 105.905 5.23879 104.566C5.23653 103.228 5.72259 101.934 6.60586 100.928C7.48914 99.9223 8.70898 99.273 10.0367 99.1021C11.3645 98.9312 12.709 99.2505 13.8182 100L14.1182 100.4L18.8182 104.6C19.3601 105.06 19.804 105.623 20.1236 106.258C20.4432 106.893 20.6319 107.585 20.6786 108.294C20.7252 109.003 20.6288 109.714 20.3951 110.385C20.1614 111.056 19.7952 111.673 19.3182 112.2ZM19.3182 90.9C18.3745 91.9849 17.0497 92.6652 15.6182 92.8C14.1691 92.8824 12.7419 92.4185 11.6182 91.5L8.21817 88.5L8.01817 88.3L7.31817 87.7C6.77322 87.2315 6.32727 86.659 6.00644 86.0159C5.68562 85.3729 5.49637 84.6722 5.44981 83.9551C5.40324 83.238 5.50029 82.5187 5.73525 81.8396C5.97022 81.1604 6.33839 80.535 6.81817 80C7.70461 79.0017 8.92393 78.3599 10.2487 78.1943C11.5735 78.0287 12.9133 78.3506 14.0182 79.1L17.0182 81.8L17.6182 82.2L18.8182 83.2C19.3631 83.6685 19.8091 84.241 20.1299 84.8841C20.4507 85.5272 20.64 86.2278 20.6865 86.9449C20.7331 87.6621 20.6361 88.3813 20.4011 89.0604C20.1661 89.7396 19.798 90.365 19.3182 90.9ZM75.1182 98.2H75.0182C75.0182 99.3404 74.5651 100.434 73.7587 101.241C72.9523 102.047 71.8586 102.5 70.7182 102.5H26.5182C25.3777 102.5 24.284 102.047 23.4776 101.241C22.6712 100.434 22.2182 99.3404 22.2182 98.2V94.8C22.5022 94.5824 22.7402 94.3104 22.9182 94C24.6719 91.9476 25.5496 89.2887 25.3626 86.5955C25.1756 83.9024 23.9387 81.3904 21.9182 79.6V79.1C24 77 24.2537 76.8782 25.5182 75.4C25.9905 74.888 26.3939 74.3165 26.7182 73.7C27.8143 71.7567 28.2692 69.517 28.0182 67.3C27.8946 66.0249 27.4843 64.7942 26.8182 63.7C25.6471 61.8206 24.1182 60.1897 22.3182 58.9V9.1C22.3182 7.95957 22.7712 6.86585 23.5776 6.05944C24.384 5.25304 25.4777 4.8 26.6182 4.8H70.8182C71.9586 4.8 73.0523 5.25304 73.8587 6.05944C74.6651 6.86585 75.1182 7.95957 75.1182 9.1V98.2Z" fill="#D9D9D9"/>
<path d="M21.5583 65.0895C21.4242 64.9295 21.3825 64.8827 21.4999 65C21.5202 65.0203 21.5396 65.0504 21.5583 65.0895C21.9952 65.6113 23.4132 67.3362 23.5 68.5C23.625 70.1751 22 72.0001 22 72.0001C22 72.0001 22 66.0161 21.5583 65.0895Z" fill="#17252A"/>
<path d="M21.4999 65C20.9999 64.5001 23.3865 66.9792 23.5 68.5C23.625 70.1751 22 72.0001 22 72.0001C22 72.0001 22 65.5 21.4999 65Z" stroke="#17252A" stroke-width="0.25"/>
</svg>
