<svg width="128" height="193" viewBox="0 0 128 193" fill="none" xmlns="http://www.w3.org/2000/svg">
<path d="M93.8202 15.8001H26.9202C26.602 15.8001 26.2967 15.9265 26.0717 16.1515C25.8466 16.3766 25.7202 16.6818 25.7202 17.0001V140.7C25.7202 141.018 25.8466 141.324 26.0717 141.549C26.2967 141.774 26.602 141.9 26.9202 141.9H93.7202C94.0385 141.9 94.3437 141.774 94.5687 141.549C94.7938 141.324 94.9202 141.018 94.9202 140.7V17.0001C94.9341 16.8474 94.916 16.6936 94.867 16.5483C94.818 16.4031 94.7392 16.2697 94.6356 16.1568C94.5321 16.0438 94.406 15.9537 94.2656 15.8923C94.1252 15.8308 93.9735 15.7994 93.8202 15.8001V15.8001ZM92.6202 139.6H28.1202V18.2001H92.5202V139.6H92.6202Z" fill="#FFB800"/>
<path d="M127.22 166L118.52 154L120.72 120.1V119.6C120.72 119.4 118.12 101.7 123.42 88.5C124.92 84.8 124.52 81.3 122.32 78.7C121.194 77.4562 119.759 76.5326 118.161 76.0233C116.563 75.5139 114.858 75.4369 113.22 75.8C111.02 76.3 109.62 77.8 106.72 81.8V9.1C106.72 7.90497 106.485 6.72164 106.027 5.61758C105.57 4.51352 104.9 3.51034 104.055 2.66533C103.21 1.82032 102.207 1.15001 101.102 0.692696C99.9984 0.235378 98.8151 1.71495e-08 97.6201 1.71495e-08H23.0201C21.8297 -7.34641e-05 20.6512 0.23599 19.5527 0.694523C18.4542 1.15306 17.4575 1.82495 16.6205 2.6713C15.7834 3.51764 15.1226 4.52163 14.6762 5.62513C14.2299 6.72863 14.0068 7.90972 14.0201 9.1V72.6C12.4556 71.3956 10.4794 70.8566 8.52006 71.1C7.33319 71.24 6.1879 71.623 5.1556 72.2252C4.1233 72.8274 3.22614 73.6358 2.52006 74.6C0.894806 76.4732 0 78.87 0 81.35C0 83.83 0.894806 86.2268 2.52006 88.1L8.32006 94.1C6.52006 94.6 5.82006 95.4 4.52006 96.9C2.74754 98.9706 1.86803 101.659 2.07421 104.377C2.2804 107.095 3.55546 109.62 5.62006 111.4L9.32006 114.3C7.46425 114.87 5.80272 115.943 4.52006 117.4C2.74754 119.471 1.86803 122.159 2.07421 124.877C2.2804 127.595 3.55546 130.12 5.62006 131.9H5.72006L6.02006 132.4C6.38549 132.788 6.82841 133.094 7.32006 133.3L13.9201 140.2V148C13.9201 150.413 14.8788 152.728 16.5854 154.435C18.292 156.141 20.6066 157.1 23.0201 157.1H40.4201L61.2201 174.6L61.9201 175L71.1201 178.8L80.0201 191.2C80.2408 191.523 80.5404 191.784 80.8904 191.959C81.2403 192.134 81.6292 192.217 82.0201 192.2C82.5177 192.222 83.009 192.081 83.4201 191.8C83.9312 191.437 84.2801 190.889 84.3922 190.272C84.5043 189.656 84.3708 189.019 84.0201 188.5L74.7201 175.5C74.4893 175.126 74.1359 174.843 73.7201 174.7L64.2201 170.8L47.8201 157.2H97.7201C100.134 157.2 102.448 156.241 104.155 154.535C105.861 152.828 106.82 150.513 106.82 148.1V94C106.82 93.9 106.92 93.9 106.92 93.8C109.42 83.3 112.32 81.1 114.42 80.6C115.202 80.391 116.027 80.4017 116.803 80.6311C117.579 80.8605 118.277 81.2995 118.82 81.9C119.82 83.1 119.92 84.7 119.12 86.7C113.62 100.3 115.72 117.6 116.02 120L113.82 154.5C113.789 155.076 113.967 155.644 114.32 156.1L123.52 168.8C123.747 169.092 124.034 169.333 124.362 169.505C124.69 169.678 125.05 169.778 125.42 169.8C125.675 169.815 125.93 169.779 126.171 169.693C126.412 169.607 126.632 169.473 126.82 169.3C127.262 168.883 127.543 168.325 127.616 167.722C127.689 167.12 127.549 166.51 127.22 166V166ZM6.72006 85.5C5.66532 84.5254 5.02529 83.1829 4.93224 81.7499C4.83918 80.3168 5.30021 78.9028 6.22006 77.8C7.42006 76.2 9.32006 75.3 11.9201 77.2L14.0201 79V93.2L6.72006 85.5ZM14.1201 131.6C12.105 130.851 10.2666 129.693 8.72006 128.2C7.32006 126.8 5.62006 123 7.92006 120.4C10.2201 117.8 14.1201 121 14.1201 121V131.6ZM10.4201 109C6.92006 106.4 6.52006 102.4 8.12006 99.9C9.72006 97.4 14.0201 100.4 14.0201 100.4V111.7C14.1201 111.8 14.5201 112.2 10.4201 109V109ZM101.92 148C101.92 148.565 101.809 149.124 101.593 149.646C101.377 150.167 101.06 150.641 100.661 151.041C100.261 151.44 99.7873 151.757 99.2656 151.973C98.7439 152.189 98.1847 152.3 97.6201 152.3H23.0201C22.4554 152.3 21.8962 152.189 21.3745 151.973C20.8528 151.757 20.3788 151.44 19.9795 151.041C19.5802 150.641 19.2635 150.167 19.0474 149.646C18.8313 149.124 18.7201 148.565 18.7201 148V9.1C18.7201 7.95957 19.1731 6.86585 19.9795 6.05944C20.7859 5.25303 21.8796 4.8 23.0201 4.8H97.6201C98.7605 4.8 99.8542 5.25303 100.661 6.05944C101.467 6.86585 101.92 7.95957 101.92 9.1V148V148Z" fill="#D9D9D9"/>
<path d="M53.3199 12.6999H71.3199C71.9564 12.6999 72.5669 12.447 73.017 11.997C73.4671 11.5469 73.7199 10.9364 73.7199 10.2999C73.7199 9.66338 73.4671 9.05293 73.017 8.60285C72.5669 8.15276 71.9564 7.8999 71.3199 7.8999H53.3199C52.6834 7.8999 52.073 8.15276 51.6229 8.60285C51.1728 9.05293 50.9199 9.66338 50.9199 10.2999C50.9199 10.9364 51.1728 11.5469 51.6229 11.997C52.073 12.447 52.6834 12.6999 53.3199 12.6999V12.6999ZM66.5199 144.2H58.1199C57.4834 144.2 56.873 144.453 56.4229 144.903C55.9728 145.353 55.7199 145.963 55.7199 146.6C55.7199 147.236 55.9728 147.847 56.4229 148.297C56.873 148.747 57.4834 149 58.1199 149H66.5199C67.1564 149 67.7669 148.747 68.217 148.297C68.6671 147.847 68.9199 147.236 68.9199 146.6C68.9199 145.963 68.6671 145.353 68.217 144.903C67.7669 144.453 67.1564 144.2 66.5199 144.2Z" fill="#4F5050"/>
<path d="M37.29 125.037L83.026 33.3069L83.921 33.7529L38.185 125.483L37.29 125.037Z" fill="#FFB800"/>
<path d="M87.5761 26C85.0658 28.3792 82.1632 30.3207 78.9923 31.7415L84.2909 32.3678L88 36.2302C87.3789 32.8559 87.2362 29.413 87.5761 26ZM33.5299 133C33.9403 129.585 33.7612 126.126 33 122.77L36.7091 126.632L42.0077 127.259C38.885 128.708 36.0218 130.647 33.5299 133Z" fill="#FFB800"/>
</svg>
