<svg width="123" height="175" viewBox="0 0 123 175" fill="none" xmlns="http://www.w3.org/2000/svg">
<path d="M122.078 143.1L113.378 131.1L115.578 97.2V96.7C115.578 96.5 112.978 78.8 118.278 65.6C119.778 61.9 119.378 58.4 117.178 55.8C116.052 54.5562 114.617 53.6326 113.019 53.1233C111.421 52.6139 109.716 52.5369 108.078 52.9C104.608 53.7969 101.585 55.9307 99.5781 58.9V9.1C99.5781 6.68653 98.6193 4.37191 96.9127 2.66533C95.2061 0.958747 92.8915 0 90.4781 0H25.9781C23.5646 0 21.25 0.958747 19.5434 2.66533C17.8368 4.37191 16.8781 6.68653 16.8781 9.1V49.6C15.8673 48.7193 14.6928 48.0465 13.4218 47.6201C12.1508 47.1936 10.8082 47.0219 9.47075 47.1148C8.13334 47.2077 6.82735 47.5633 5.62748 48.1613C4.42761 48.7594 3.3574 49.588 2.47806 50.6C0.718341 52.6689 -0.162206 55.3441 0.0246637 58.0537C0.211533 60.7633 1.45099 63.2923 3.47806 65.1L10.1781 70.8C8.35839 71.3862 6.7333 72.4581 5.47806 73.9C3.69355 75.958 2.7969 78.639 2.98431 81.3565C3.17172 84.0739 4.42793 86.6065 6.47806 88.4L10.1781 91.3C8.32225 91.8697 6.66072 92.9428 5.37806 94.4C3.60554 96.4706 2.72603 99.1594 2.93221 101.877C3.1384 104.595 4.41346 107.12 6.47806 108.9H6.57806L6.87806 109.3C7.24349 109.688 7.68641 109.994 8.17806 110.2L16.7781 117.1V124.9C16.7781 127.313 17.7368 129.628 19.4434 131.335C21.15 133.041 23.4646 134 25.8781 134H43.3781L69.1781 156.5L69.8781 156.9L79.0781 160.7L87.9781 173.1C88.1988 173.423 88.4984 173.684 88.8484 173.859C89.1983 174.034 89.5872 174.117 89.9781 174.1C90.4757 174.122 90.967 173.981 91.3781 173.7C91.8892 173.337 92.2381 172.789 92.3502 172.172C92.4623 171.556 92.3288 170.919 91.9781 170.4L82.6781 157.4C82.4473 157.026 82.0939 156.743 81.6781 156.6L72.1781 152.7L50.7781 134.2H90.6781C93.0915 134.2 95.4062 133.241 97.1127 131.535C98.8193 129.828 99.7781 127.513 99.7781 125.1V71.1C99.7781 71 99.8781 71 99.8781 70.9C102.378 60.4 107.278 58.2 109.378 57.7C110.16 57.491 110.985 57.5018 111.761 57.7311C112.537 57.9605 113.235 58.3995 113.778 59C114.778 60.2 114.878 61.8 114.078 63.8C108.578 77.4 110.678 94.7 110.978 97.1L108.778 131.6C108.754 132.161 108.893 132.717 109.178 133.2L118.378 145.9C118.605 146.192 118.892 146.433 119.22 146.605C119.548 146.778 119.908 146.878 120.278 146.9C120.533 146.915 120.788 146.879 121.029 146.793C121.27 146.707 121.49 146.573 121.678 146.4C122.158 146.008 122.467 145.446 122.542 144.83C122.616 144.215 122.45 143.595 122.078 143.1V143.1ZM6.57806 61.5C6.03311 61.0315 5.58715 60.459 5.26633 59.8159C4.9455 59.1729 4.75626 58.4722 4.70969 57.7551C4.66313 57.038 4.76017 56.3187 4.99514 55.6396C5.23011 54.9604 5.59827 54.335 6.07806 53.8C7.02173 52.7151 8.34654 52.0348 9.77806 51.9C11.2284 51.8076 12.6592 52.2726 13.7781 53.2L16.8781 55.9V70.1L6.57806 61.5ZM17.8781 105.3C17.0521 106.247 15.927 106.882 14.6898 107.1C13.4527 107.318 12.1781 107.107 11.0781 106.5L9.57806 105.3C9.03311 104.832 8.58715 104.259 8.26633 103.616C7.9455 102.973 7.75626 102.272 7.70969 101.555C7.66313 100.838 7.76017 100.119 7.99514 99.4396C8.23011 98.7604 8.59827 98.135 9.07806 97.6C10.0219 96.5374 11.3404 95.8815 12.7572 95.7696C14.1741 95.6578 15.5792 96.0987 16.6781 97L17.2781 97.6C18.3697 98.5472 19.0447 99.886 19.157 101.327C19.2692 102.768 18.8098 104.195 17.8781 105.3V105.3ZM17.8781 84.8C17.1186 85.6805 16.0953 86.2924 14.9602 86.5447C13.8251 86.7969 12.6389 86.676 11.5781 86.2H11.3781L9.67806 84.8C8.70589 83.84 8.12582 82.5526 8.05083 81.1883C7.97584 79.8241 8.41129 78.4809 9.27238 77.4201C10.1335 76.3593 11.3585 75.657 12.709 75.45C14.0595 75.2429 15.4387 75.5459 16.5781 76.3L17.3781 77.1C18.4115 78.0871 19.0365 79.4264 19.1291 80.8525C19.2217 82.2787 18.7752 83.6875 17.8781 84.8V84.8ZM94.8781 125.1C94.8781 125.665 94.7668 126.224 94.5507 126.746C94.3346 127.267 94.0179 127.741 93.6186 128.141C93.2193 128.54 92.7453 128.857 92.2236 129.073C91.7019 129.289 91.1427 129.4 90.5781 129.4H25.9781C25.4134 129.4 24.8542 129.289 24.3325 129.073C23.8108 128.857 23.3368 128.54 22.9375 128.141C22.5382 127.741 22.2215 127.267 22.0054 126.746C21.7893 126.224 21.6781 125.665 21.6781 125.1V108.2C23.1645 106.379 23.9763 104.101 23.9763 101.75C23.9763 99.3994 23.1645 97.121 21.6781 95.3V87.8C23.1645 85.979 23.9763 83.7006 23.9763 81.35C23.9763 78.9994 23.1645 76.721 21.6781 74.9V9.1C21.6781 7.95957 22.1311 6.86585 22.9375 6.05944C23.7439 5.25303 24.8376 4.8 25.9781 4.8H90.5781C91.7185 4.8 92.8122 5.25303 93.6186 6.05944C94.425 6.86585 94.8781 7.95957 94.8781 9.1V125.1V125.1Z" fill="#D9D9D9"/>
<path d="M86.6782 15.9001H29.8782C29.56 15.9001 29.2547 16.0266 29.0297 16.2516C28.8046 16.4767 28.6782 16.7819 28.6782 17.1001V117.8C28.6782 118.118 28.8046 118.424 29.0297 118.649C29.2547 118.874 29.56 119 29.8782 119H86.6782C86.8358 119 86.9918 118.969 87.1374 118.909C87.283 118.849 87.4153 118.76 87.5268 118.649C87.6382 118.537 87.7266 118.405 87.7869 118.259C87.8472 118.114 87.8782 117.958 87.8782 117.8V17.1001C87.8782 16.7819 87.7518 16.4767 87.5268 16.2516C87.3017 16.0266 86.9965 15.9001 86.6782 15.9001V15.9001ZM85.4782 116.6H31.0782V18.3001H85.4782V116.6Z" fill="#FFB800"/>
<path d="M49.1778 12.7001H67.1778C67.8143 12.7001 68.4248 12.4473 68.8749 11.9972C69.325 11.5471 69.5778 10.9367 69.5778 10.3001C69.5778 9.66363 69.325 9.05318 68.8749 8.60309C68.4248 8.153 67.8143 7.90015 67.1778 7.90015H49.1778C48.5413 7.90015 47.9309 8.153 47.4808 8.60309C47.0307 9.05318 46.7778 9.66363 46.7778 10.3001C46.7778 10.9367 47.0307 11.5471 47.4808 11.9972C47.9309 12.4473 48.5413 12.7001 49.1778 12.7001V12.7001ZM62.3778 121.3H53.9778C53.3413 121.3 52.7309 121.553 52.2808 122.003C51.8307 122.453 51.5778 123.064 51.5778 123.7C51.5778 124.337 51.8307 124.947 52.2808 125.397C52.7309 125.847 53.3413 126.1 53.9778 126.1H62.3778C62.693 126.1 63.0051 126.038 63.2963 125.917C63.5875 125.797 63.852 125.62 64.0749 125.397C64.2977 125.174 64.4745 124.91 64.5951 124.619C64.7158 124.327 64.7778 124.015 64.7778 123.7C64.7778 123.064 64.525 122.453 64.0749 122.003C63.6248 121.553 63.0144 121.3 62.3778 121.3V121.3Z" fill="#4F5050"/>
<path d="M39.1528 103.251L76.7908 31.866L77.6748 32.332L40.0378 103.718L39.1528 103.251Z" fill="#FFB800"/>
<path d="M79.9781 26.9001C77.5493 29.0985 74.78 30.8884 71.7781 32.2001L76.7781 32.9001L80.1781 36.6001C79.6093 33.3967 79.5419 30.1243 79.9781 26.9001V26.9001ZM36.7781 108.9C37.2135 105.643 37.1461 102.337 36.5781 99.1002L39.9781 102.8L44.9781 103.5C41.9793 104.86 39.2124 106.683 36.7781 108.9V108.9Z" fill="#FFB800"/>
</svg>
